<?xml version="1.0" encoding="UTF-8" standalone="no"?>
<!-- Created with Inkscape (http://www.inkscape.org/) -->

<svg
   xmlns:dc="http://purl.org/dc/elements/1.1/"
   xmlns:cc="http://creativecommons.org/ns#"
   xmlns:rdf="http://www.w3.org/1999/02/22-rdf-syntax-ns#"
   xmlns:svg="http://www.w3.org/2000/svg"
   xmlns="http://www.w3.org/2000/svg"
   xmlns:sodipodi="http://sodipodi.sourceforge.net/DTD/sodipodi-0.dtd"
   xmlns:inkscape="http://www.inkscape.org/namespaces/inkscape"
   id="svg3034"
   version="1.1"
   inkscape:version="0.91 r13725"
   width="1000"
   height="541.0025"
   xml:space="preserve"
   sodipodi:docname="Acura.svg"><metadata
     id="metadata3040"><rdf:RDF><cc:Work
         rdf:about=""><dc:format>image/svg+xml</dc:format><dc:type
           rdf:resource="http://purl.org/dc/dcmitype/StillImage" /><dc:title /></cc:Work></rdf:RDF></metadata><defs
     id="defs3038"><clipPath
       clipPathUnits="userSpaceOnUse"
       id="clipPath3064"><path
         d="m 275.53,399.051 96.941,0 0,79.292 -96.941,0 0,-79.292 z"
         id="path3066"
         inkscape:connector-curvature="0" /></clipPath><clipPath
       clipPathUnits="userSpaceOnUse"
       id="clipPath3080"><path
         d="m 292.135,418.268 63.731,0 0,44.312 -63.731,0 0,-44.312 z"
         id="path3082"
         inkscape:connector-curvature="0" /></clipPath><clipPath
       clipPathUnits="userSpaceOnUse"
       id="clipPath3096"><path
         d="m 275.53,399.051 96.941,0 0,79.292 -96.941,0 0,-79.292 z"
         id="path3098"
         inkscape:connector-curvature="0" /></clipPath></defs><sodipodi:namedview
     pagecolor="#ffffff"
     bordercolor="#666666"
     borderopacity="1"
     objecttolerance="10"
     gridtolerance="10"
     guidetolerance="10"
     inkscape:pageopacity="0"
     inkscape:pageshadow="2"
     inkscape:window-width="1680"
     inkscape:window-height="931"
     id="namedview3036"
     showgrid="false"
     fit-margin-top="0"
     fit-margin-left="0"
     fit-margin-right="0"
     fit-margin-bottom="0"
     inkscape:zoom="0.35381221"
     inkscape:cx="91.130658"
     inkscape:cy="-40.502775"
     inkscape:window-x="0"
     inkscape:window-y="1"
     inkscape:window-maximized="1"
     inkscape:current-layer="g3042" /><g
     id="g3042"
     inkscape:groupmode="layer"
     inkscape:label="RDX"
     transform="matrix(1.25,0,0,-1.25,-365.16825,1076.1295)"><g
       id="g3052"
       transform="matrix(12.552918,0,0,12.552918,362.55647,545.09625)"
       style="fill:#000000"><path
         d="m 0,0 2.525,0 5.645,-9.314 -2.693,0 -4.214,7.097 -2.238,-3.765 3.626,0 1.094,-1.759 -5.674,0 -1.016,-1.573 -2.665,0 L 0,0 z"
         style="fill:#000000;fill-opacity:1;fill-rule:nonzero;stroke:none"
         id="path3054"
         inkscape:connector-curvature="0" /></g><g
       id="g3056"
       transform="matrix(12.552918,0,0,12.552918,989.57726,545.09625)"
       style="fill:#000000"><path
         d="m 0,0 2.525,0 5.645,-9.314 -2.693,0 -4.214,7.097 -2.238,-3.765 3.626,0 1.095,-1.759 -5.674,0 -1.017,-1.573 -2.665,0 L 0,0 z"
         style="fill:#000000;fill-opacity:1;fill-rule:nonzero;stroke:none"
         id="path3058"
         inkscape:connector-curvature="0" /></g><g
       id="g3060"
       transform="matrix(12.552918,0,0,12.552918,-3375.0072,-4945.8252)"
       style="fill:#000000"><g
         id="g3062"
         clip-path="url(#clipPath3064)"
         style="fill:#000000"><g
           id="g3068"
           transform="translate(305.7459,432.765)"
           style="fill:#000000"><path
             d="m 0,0 0,-1.235 c 0.057,-2.439 1.431,-3.477 3.563,-3.422 l 7.04,0 0,1.909 -7.012,0 C 2.413,-2.777 2.328,-1.963 2.3,-1.164 l 0,1.164 0,1.22 c 0.028,0.729 0.113,1.557 1.291,1.529 l 7.012,0 0,1.908 -7.04,0 C 1.431,4.713 0.057,3.661 0,1.234 L 0,0 z"
             style="fill:#000000;fill-opacity:1;fill-rule:nonzero;stroke:none"
             id="path3070"
             inkscape:connector-curvature="0" /></g><g
           id="g3072"
           transform="translate(332.4536,428.1048)"
           style="fill:#000000"><path
             d="m 0,0 -2.276,0.004 0,9.313 8.528,0 c 2.973,0 3.73,-3.942 1.654,-5.302 C 8.79,3.524 8.944,2.529 9.001,2.163 9.057,1.799 9.071,0.004 9.071,0.004 l -2.244,0 -0.071,1.908 C 6.686,2.725 6.195,3.3 5.354,3.285 l -4.334,0 -0.448,1.992 5.076,0 c 0.786,0 1.181,0.337 1.181,1.024 0,0.688 -0.395,1.025 -1.181,1.025 l -5.652,0 L 0,0 z"
             style="fill:#000000;fill-opacity:1;fill-rule:nonzero;stroke:none"
             id="path3074"
             inkscape:connector-curvature="0" /></g></g></g><g
       id="g3076"
       transform="matrix(12.552918,0,0,12.552918,-3375.0072,-4945.8252)"
       style="fill:#000000"><g
         id="g3078"
         clip-path="url(#clipPath3080)"
         style="fill:#000000"><g
           id="g3084"
           transform="translate(323.1869,428.1018)"
           style="fill:#000000"><path
             d="m 0,0 1.991,0 c 2.44,0.056 3.478,1.43 3.422,3.562 l 0,5.758 -2.244,0 0,-6.221 C 3.197,1.921 2.384,1.838 1.584,1.809 l -1.584,0 -1.669,0 c -0.73,0.029 -1.557,0.112 -1.53,1.29 l 0,6.221 -2.3,0 0,-5.772 C -5.555,1.417 -4.502,0.056 -2.076,0 L 0,0 z"
             style="fill:#000000;fill-opacity:1;fill-rule:nonzero;stroke:none"
             id="path3086"
             inkscape:connector-curvature="0" /></g><g
           id="g3088"
           transform="translate(332.3908,449.8752)"
           style="fill:#000000"><path
             d="m 0,0 c -0.289,-3.349 -1.634,-5.379 -3.878,-6.456 -0.096,1.795 -0.462,5.917 -0.664,7.569 -0.32,2.019 -0.653,2.65 -1.032,3.768 -0.309,0.911 -1.912,5.021 -2.694,6.934 0,0 1.997,-0.036 3.67,-0.615 C -3.391,10.782 -2.21,9.987 -1.392,8.807 0.499,6.082 0.113,1.314 0,0 m -4.1,-6.557 c -1.543,-0.659 -3.458,-0.805 -5.041,-0.835 -1.583,0.03 -3.497,0.176 -5.04,0.835 l -0.006,0 c 0.519,1.372 2.992,7.302 4.347,9.619 l 1.399,0 c 1.354,-2.317 3.828,-8.247 4.347,-9.619 l -0.006,0 z M -18.278,0 c -0.113,1.314 -0.498,6.082 1.391,8.807 0.819,1.18 2,1.975 3.208,2.393 1.673,0.579 3.668,0.615 3.668,0.615 -0.782,-1.913 -2.384,-6.023 -2.692,-6.934 -0.38,-1.118 -0.713,-1.749 -1.033,-3.768 -0.202,-1.652 -0.569,-5.774 -0.665,-7.569 -2.243,1.077 -3.589,3.107 -3.877,6.456 m 8.548,11.82 c 0.357,0.02 0.432,0.017 0.592,0.016 0.16,10e-4 0.235,0.004 0.592,-0.016 10e-4,0 0.01,-7.615 0.01,-7.615 l -1.203,0 c 0,0 0.008,7.615 0.009,7.615 M 1.43,3.205 c -0.182,3.481 -1.379,6.04 -2.999,7.432 -1.754,1.506 -5.029,2.078 -7.566,2.068 -2.536,0.01 -5.811,-0.562 -7.564,-2.068 -1.621,-1.392 -2.818,-3.951 -2.999,-7.432 -0.17,-3.262 0.55,-6.83 2.404,-8.853 1.788,-1.983 5.379,-2.612 8.158,-2.609 l 10e-4,0 0.002,0 c 2.779,-0.003 6.371,0.626 8.159,2.609 1.852,2.023 2.575,5.591 2.404,8.853"
             style="fill:#000000;fill-opacity:1;fill-rule:nonzero;stroke:none"
             id="path3090"
             inkscape:connector-curvature="0" /></g></g></g></g></svg>